<svg width="1379" height="1379" viewBox="0 0 1379 1379" fill="none" xmlns="http://www.w3.org/2000/svg">
<path d="M690.022 915.829C1445.97 1708.06 1512.14 1136.42 900.805 735.154C890.915 728.663 881.249 741.619 889.671 749.927C1411.2 1264.35 896.378 1113.58 690.022 915.829Z" fill="#9A77FF"/>
<path d="M690.022 462.89C1445.97 -329.341 1512.14 242.302 900.805 643.565C890.915 650.056 881.249 637.099 889.671 628.792C1411.2 114.37 896.378 265.136 690.022 462.89Z" fill="#9A77FF"/>
<path d="M689.864 915.829C-66.0804 1708.06 -132.258 1136.42 479.082 735.154C488.972 728.663 498.638 741.62 490.216 749.927C-31.3108 1264.35 483.509 1113.58 689.864 915.829Z" fill="#9A77FF"/>
<path d="M689.864 462.89C-66.0803 -329.341 -132.258 242.302 479.082 643.565C488.971 650.056 498.638 637.099 490.216 628.792C-31.3108 114.37 483.509 265.136 689.864 462.89Z" fill="#9A77FF"/>
<path d="M623.691 622.276C653.118 592.849 671.218 568.679 682.061 549.167C685.119 543.663 693.881 543.663 696.939 549.167C707.782 568.679 725.882 592.849 755.309 622.276C789.534 656.501 1129.25 675.404 1308.67 685.388C1336.54 686.937 1360.54 688.275 1378.92 689.42C1378.97 689.422 1379 689.457 1379 689.5V689.5C1379 689.543 1378.97 689.578 1378.92 689.581C1361.08 690.691 1337.95 691.983 1311.12 693.476L1308.67 693.612C1129.25 703.593 789.534 722.496 755.309 756.724C725.882 786.151 707.782 810.319 696.939 829.832C693.881 835.336 685.119 835.336 682.06 829.832C671.217 810.32 653.117 786.151 623.691 756.724C589.47 722.499 249.8 703.593 70.3725 693.608H70.3384C42.4678 692.059 18.4636 690.725 0.0750397 689.581C0.0324788 689.578 0 689.543 0 689.5V689.5C0 689.457 0.0324761 689.422 0.075037 689.42C18.4636 688.275 42.4678 686.941 70.3384 685.392H70.3725C249.8 675.407 589.47 656.501 623.691 622.276Z" fill="#9A77FF"/>
<path d="M622.275 755.309C592.848 725.882 568.678 707.782 549.166 696.939C543.662 693.881 543.662 685.119 549.166 682.061C568.678 671.218 592.848 653.118 622.275 623.691C656.5 589.466 675.403 249.754 685.387 70.3346C686.936 42.4641 688.274 18.4636 689.419 0.075073C689.421 0.0325125 689.456 3.60012e-05 689.499 3.60012e-05V3.60012e-05C689.542 3.60012e-05 689.577 0.0325365 689.58 0.0750977C690.69 17.9208 691.982 41.0526 693.475 67.8765L693.611 70.3346C703.592 249.754 722.495 589.466 756.723 623.691C786.15 653.118 810.318 671.218 829.831 682.061C835.335 685.119 835.335 693.881 829.831 696.94C810.319 707.783 786.15 725.883 756.723 755.309C722.498 789.53 703.592 1129.2 693.607 1308.63V1308.66C692.058 1336.53 690.724 1360.54 689.58 1378.92C689.577 1378.97 689.542 1379 689.499 1379V1379C689.456 1379 689.421 1378.97 689.419 1378.92C688.274 1360.54 686.94 1336.53 685.391 1308.66V1308.63C675.406 1129.2 656.5 789.53 622.275 755.309Z" fill="#9A77FF"/>
</svg>
